# xmcd
#
# Track frame offsets: 
#        150
#        17814
#        33925
#        51635
#        65066
#        84947
#        100542
#        118255
#        135369
#        155089
#        172823
#        189686
#        208841
#
# Disc length: 3059 seconds
#
# Revision: 4
# Processed by: cddbd v1.5.2PL0 Copyright (c) Steve Scherf et al.
# Submitted via: ExactAudioCopy v0.99pb5
#
DISCID=b20bf10d
DTITLE=Backstreet Boys - Millennium
DYEAR=1999
DGENRE=Pop
TTITLE0=Larger Than Life
TTITLE1=I Want It That Way
TTITLE2=Show Me The Meaning Of Being Lonely
TTITLE3=It's Gotta Be You 
TTITLE4=I Need You Tonight
TTITLE5=Don't Want You Back
TTITLE6=Don't  Wanna Lose You Now 
TTITLE7=The One
TTITLE8=Back To Your Heart
TTITLE9=Spanish Eyes
TTITLE10=No One Else Comes Close
TTITLE11=The Perfect Fan
TTITLE12=I'll Be There For You
EXTD=
EXTT0=
EXTT1=
EXTT2=
EXTT3=
EXTT4=
EXTT5=
EXTT6=
EXTT7=
EXTT8=
EXTT9=
EXTT10=
EXTT11=
EXTT12=
PLAYORDER=
